<svg xmlns="http://www.w3.org/2000/svg" width="48" height="48" viewBox="0 0 48 48" fill="none">
  <rect width="48" height="48" rx="12" fill="#863bff"/>
  <path d="M24 12C21.8 12 20 13.8 20 16V22H14C11.8 22 10 23.8 10 26V34C10 36.2 11.8 38 14 38H34C36.2 38 38 36.2 38 34V26C38 23.8 36.2 22 34 22H28V16C28 13.8 26.2 12 24 12ZM24 14C25.1 14 26 14.9 26 16V22H22V16C22 14.9 22.9 14 24 14ZM14 24H34C35.1 24 36 24.9 36 26V34C36 35.1 35.1 36 34 36H14C12.9 36 12 35.1 12 34V26C12 24.9 12.9 24 14 24Z" fill="white"/>
</svg>
