<svg width="5000" height="5000" viewBox="0 0 5000 5000" fill="none" xmlns="http://www.w3.org/2000/svg">
<circle cx="2500" cy="2500" r="2500" fill="#0077B6"/>
<path d="M1951.15 3547V1910.64H2539.22V3547H1951.15ZM2245.18 1740.18C2165.64 1740.18 2097.45 1713.9 2040.64 1661.35C1983.82 1608.79 1955.41 1545.58 1955.41 1471.72C1955.41 1397.85 1983.82 1334.64 2040.64 1282.09C2097.45 1229.53 2165.64 1203.25 2245.18 1203.25C2325.44 1203.25 2393.62 1229.53 2449.73 1282.09C2506.55 1334.64 2534.95 1397.85 2534.95 1471.72C2534.95 1545.58 2506.55 1608.79 2449.73 1661.35C2393.62 1713.9 2325.44 1740.18 2245.18 1740.18Z" fill="white"/>
<rect x="1968" y="2960" width="1226" height="587" fill="white"/>
</svg>
